<svg width="500" height="500" viewBox="0 0 500 500" fill="none" xmlns="http://www.w3.org/2000/svg">
    <g clip-path="url(#clip0_1339_2002)">
        <path
            d="M250 500C388.071 500 500 388.071 500 250C500 111.929 388.071 0 250 0C111.929 0 0 111.929 0 250C0 388.071 111.929 500 250 500Z"
            fill="#000" />
        <path
            d="M78.6691 203.638L113.309 173.888H132.5V249.248H113.309L78.6691 219.666C73.777 215.448 73.777 207.856 78.6691 203.638Z"
            fill="#fff" />
        <path
            d="M386.691 296.073L421.331 266.322C426.223 262.104 426.223 254.512 421.331 250.294L386.691 220.712"
            fill="#fff" />
        <path
            d="M386.691 296.073L421.331 266.322C426.223 262.104 426.223 254.512 421.331 250.294L386.691 220.712H371V296.073H386.691Z"
            fill="#fff" />
        <path
            d="M295.533 128.159C291.878 128.159 288.448 128.833 284.906 129.228C291.484 141.825 295.533 155.884 295.533 171.069V280.623C295.533 327.301 260.275 365.375 215.008 370.66C230.191 399.849 260.387 419.983 295.533 419.983C345.862 419.983 386.688 379.153 386.688 328.875V219.322C386.688 168.988 345.862 128.159 295.533 128.159Z"
            fill="#fff" />
        <path
            d="M204.486 328.913V219.36C204.486 172.68 239.744 134.607 285.012 129.321C269.829 100.133 239.632 80 204.486 80C154.158 80 113.332 120.829 113.332 171.106V280.659C113.332 330.993 154.158 371.767 204.486 371.767C208.084 371.767 211.571 371.092 215.058 370.698C208.535 358.157 204.486 344.097 204.486 328.913Z"
            fill="#fff" />
    </g>
    <defs>
        <clipPath id="clip0_1339_2002">
            <rect width="500" height="500" fill="#000" />
        </clipPath>
    </defs>
</svg>